<?xml version="1.0" encoding="iso-8859-1"?>
<!-- Generator: Adobe Illustrator 19.0.0, SVG Export Plug-In . SVG Version: 6.00 Build 0)  -->
<svg version="1.1" id="Layer_1" xmlns="http://www.w3.org/2000/svg" xmlns:xlink="http://www.w3.org/1999/xlink" x="0px" y="0px"
	 viewBox="0 0 455 455" style="enable-background:new 0 0 455 455;" xml:space="preserve">
<g>
	<path d="M0,69.889v108.263h160.468c-1.89-5.039-2.931-10.49-2.931-16.182c0-25.482,20.731-46.213,46.214-46.213
		c11.529,0,22.607,4.303,31.194,12.116l0.177,0.164l47.378,44.529l47.554-44.693c8.587-7.813,19.665-12.116,31.194-12.116
		c25.482,0,46.214,20.731,46.214,46.213c0,5.691-1.041,11.142-2.931,16.182H455V69.889H0z"/>
	<path d="M361.986,178.152c8.598-0.388,15.477-7.49,15.477-16.182c0-8.94-7.273-16.213-16.214-16.213
		c-4.012,0-7.889,1.504-10.929,4.237l-29.959,28.157H361.986z"/>
	<path d="M327.5,315.757h-30V208.156c-8.814-0.002-21.186-0.002-30,0v67.601h-30v-67.595L0,208.152v176.958h455V208.153l-127.5,0.01
		V315.757z"/>
	<path d="M244.639,178.152l-29.959-28.157c-3.04-2.733-6.917-4.237-10.929-4.237c-8.94,0-16.214,7.273-16.214,16.213
		c0,8.692,6.879,15.794,15.477,16.182H244.639z"/>
</g>
<g>
</g>
<g>
</g>
<g>
</g>
<g>
</g>
<g>
</g>
<g>
</g>
<g>
</g>
<g>
</g>
<g>
</g>
<g>
</g>
<g>
</g>
<g>
</g>
<g>
</g>
<g>
</g>
<g>
</g>
</svg>
